<?xml version="1.0" encoding="UTF-8"?>
<svg xmlns="http://www.w3.org/2000/svg" xmlns:xlink="http://www.w3.org/1999/xlink" width="28pt" height="28pt" viewBox="0 0 28 28" version="1.1">
<g id="surface1">
<path style="fill:none;stroke-width:3;stroke-linecap:butt;stroke-linejoin:miter;stroke:rgb(0%,0%,0%);stroke-opacity:1;stroke-miterlimit:4;" d="M 1.499524 9.99869 C 1.499524 8.205417 2.06744 6.456905 3.122143 5.00494 C 4.176845 3.552976 5.665179 2.470298 7.371726 1.916369 C 9.081071 1.36244 10.919107 1.36244 12.628452 1.916369 C 14.335 2.470298 15.820536 3.552976 16.878036 5.00494 C 17.932738 6.456905 18.500655 8.205417 18.500655 9.99869 C 18.500655 11.794762 17.932738 13.543274 16.878036 14.995238 C 15.820536 16.447202 14.335 17.529881 12.628452 18.08381 C 10.919107 18.637738 9.081071 18.637738 7.371726 18.08381 C 5.665179 17.529881 4.176845 16.447202 3.122143 14.995238 C 2.06744 13.543274 1.499524 11.794762 1.499524 9.99869 " transform="matrix(1.396277,0,0,1.396277,0,0)"/>
<path style=" stroke:none;fill-rule:nonzero;fill:rgb(0%,0%,0%);fill-opacity:1;" d="M 9.773438 13.960938 C 9.773438 13.078125 10.054688 12.214844 10.574219 11.5 C 11.09375 10.785156 11.828125 10.253906 12.667969 9.980469 C 13.507812 9.707031 14.417969 9.707031 15.257812 9.980469 C 16.097656 10.253906 16.832031 10.785156 17.351562 11.5 C 17.871094 12.214844 18.152344 13.078125 18.152344 13.960938 C 18.152344 14.847656 17.871094 15.710938 17.351562 16.421875 C 16.832031 17.140625 16.097656 17.671875 15.257812 17.945312 C 14.417969 18.21875 13.507812 18.21875 12.667969 17.945312 C 11.828125 17.671875 11.09375 17.140625 10.574219 16.421875 C 10.054688 15.710938 9.773438 14.847656 9.773438 13.960938 "/>
</g>
</svg>
