<svg id="Слой_4_копия_" data-name="Слой 4 (копия)" xmlns="http://www.w3.org/2000/svg" viewBox="0 0 324.79 324.79"><defs><style>.cls-1{fill:#ff9800;}.cls-2{fill:#f44336;}.cls-3{fill:#4caf50;}.cls-4{fill:#2196f3;}</style></defs><title>Монтажная область 1</title><path class="cls-1" d="M152.36,148.25a15.87,15.87,0,1,1,25.84-13.51l19.45-10.17A37,37,0,1,0,128,149.66l9.67,6.28Z"/><path class="cls-1" d="M162.4,56.61a105.79,105.79,0,0,0-92.85,55.1l17.84,11.58A84.52,84.52,0,0,1,227.82,108.8l19.1-10A105.64,105.64,0,0,0,162.4,56.61Z"/><path class="cls-2" d="M189.38,110.56l-.33-.35Z"/><path class="cls-2" d="M190.35,111.63l-.3-.34Z"/><path class="cls-2" d="M191.28,112.74l-.29-.35Z"/><path class="cls-2" d="M187.33,108.54l-.39-.34Z"/><path class="cls-2" d="M185.12,106.68l-.43-.33Z"/><path class="cls-2" d="M186.24,107.59l-.41-.34Z"/><path class="cls-2" d="M192.16,113.89l-.26-.35Z"/><path class="cls-2" d="M193.79,116.28l-.21-.33Z"/><path class="cls-2" d="M193,115.07l-.24-.34Z"/><path class="cls-2" d="M196.49,121.47l-.13-.3Z"/><path class="cls-2" d="M197,122.84c0-.1-.08-.19-.11-.29C197,122.65,197,122.74,197,122.84Z"/><path class="cls-2" d="M195.89,120.13l-.15-.31Z"/><path class="cls-2" d="M184,105.82c-.15-.11-.3-.22-.46-.32C183.66,105.6,183.81,105.71,184,105.82Z"/><path class="cls-2" d="M195.24,118.81l-.17-.32Z"/><path class="cls-2" d="M194.54,117.53l-.19-.32Z"/><path class="cls-2" d="M197.53,124.24l-.09-.27Z"/><path class="cls-2" d="M169.17,99.55l-.63-.12Z"/><path class="cls-2" d="M172.11,100.21l-.62-.17Z"/><path class="cls-2" d="M182.77,105l-.48-.31Z"/><path class="cls-2" d="M170.66,99.85l-.64-.14Z"/><path class="cls-2" d="M188,109.18l.35.35Z"/><path class="cls-2" d="M164.47,99,164,99Z"/><path class="cls-2" d="M166.1,99.12c-.2,0-.4-.05-.6-.06C165.7,99.07,165.9,99.1,166.1,99.12Z"/><path class="cls-2" d="M167.66,99.3l-.63-.09Z"/><path class="cls-2" d="M179,102.83c-.18-.09-.36-.19-.54-.27C178.63,102.64,178.81,102.74,179,102.83Z"/><path class="cls-2" d="M181.54,104.23l-.5-.3Z"/><path class="cls-2" d="M177.67,102.2l-.56-.25Z"/><path class="cls-2" d="M176.33,101.62l-.59-.23Z"/><path class="cls-2" d="M175,101.1c-.2-.07-.4-.15-.6-.21C174.55,101,174.75,101,175,101.1Z"/><path class="cls-2" d="M173.54,100.63l-.61-.19Z"/><path class="cls-2" d="M180.28,103.5l-.52-.28Z"/><path class="cls-2" d="M148.21,143.05c-.06-.11-.11-.21-.16-.32C148.1,142.84,148.15,142.94,148.21,143.05Z"/><path class="cls-2" d="M147.49,141.4c0-.1-.07-.2-.1-.3C147.42,141.2,147.46,141.3,147.49,141.4Z"/><path class="cls-2" d="M149.09,144.59l-.2-.31Z"/><path class="cls-2" d="M146.64,137.84c0-.06,0-.11,0-.17S146.64,137.78,146.64,137.84Z"/><path class="cls-2" d="M150.9,146.88c.11.12.23.24.35.35C151.13,147.12,151,147,150.9,146.88Z"/><path class="cls-2" d="M147,139.66l-.06-.25Z"/><path class="cls-2" d="M178,133.39a2.17,2.17,0,0,1,0-.25A2.17,2.17,0,0,0,178,133.39Z"/><path class="cls-2" d="M150.12,146l-.26-.31Z"/><path class="cls-2" d="M126.39,144.62c-.11-.46-.21-.92-.3-1.39C126.18,143.7,126.28,144.16,126.39,144.62Z"/><path class="cls-2" d="M126,142.89c-.08-.43-.15-.86-.22-1.3C125.87,142,125.94,142.46,126,142.89Z"/><path class="cls-2" d="M126.85,146.34c-.14-.49-.28-1-.4-1.48C126.57,145.36,126.71,145.85,126.85,146.34Z"/><path class="cls-2" d="M152.36,148.25l-14.71,7.69L128,149.66c-.41-1-.78-2.11-1.1-3.2a36.81,36.81,0,0,0,6.7,12.78l19.71-10.3c-.4-.28-.79-.59-1.16-.9C152.21,148.1,152.28,148.18,152.36,148.25Z"/><path class="cls-2" d="M125.41,137.69c0-.58,0-1.16,0-1.74C125.37,136.53,125.39,137.11,125.41,137.69Z"/><path class="cls-2" d="M125.54,139.43c0-.42-.07-.84-.09-1.27C125.47,138.59,125.5,139,125.54,139.43Z"/><path class="cls-2" d="M125.74,141.16c-.06-.41-.11-.83-.15-1.25C125.63,140.33,125.68,140.75,125.74,141.16Z"/><path class="cls-2" d="M178.2,134.74a.17.17,0,0,0,0-.07c0,.4.07.81.07,1.21L198,125.59c-.1-.34-.2-.68-.31-1Z"/><path class="cls-2" d="M167,120.77c-.27-.09-.56-.15-.84-.22C166.44,120.62,166.73,120.68,167,120.77Z"/><path class="cls-2" d="M171.05,122.65l-.57-.34Z"/><path class="cls-2" d="M169.77,121.9l-.65-.31Z"/><path class="cls-2" d="M168.42,121.27c-.24-.1-.49-.18-.74-.27C167.93,121.09,168.18,121.17,168.42,121.27Z"/><path class="cls-2" d="M165.52,120.39c-.33-.06-.67-.1-1-.15C164.85,120.29,165.19,120.33,165.52,120.39Z"/><path class="cls-2" d="M177.73,131.92a2.68,2.68,0,0,1-.07-.27A2.68,2.68,0,0,0,177.73,131.92Z"/><path class="cls-2" d="M164,120.16c-.52,0-1-.08-1.58-.08C162.93,120.08,163.46,120.11,164,120.16Z"/><path class="cls-2" d="M172.24,123.51c-.16-.13-.32-.24-.49-.36C171.92,123.27,172.08,123.38,172.24,123.51Z"/><path class="cls-2" d="M172.93,124.1l.41.36Z"/><path class="cls-2" d="M176.72,129.15l-.15-.31Z"/><path class="cls-2" d="M177.29,130.51c0-.1-.07-.2-.11-.29C177.22,130.31,177.25,130.41,177.29,130.51Z"/><path class="cls-2" d="M176,127.87l-.2-.34Z"/><path class="cls-2" d="M175.24,126.65c-.08-.12-.17-.23-.26-.35C175.07,126.42,175.16,126.53,175.24,126.65Z"/><path class="cls-2" d="M174.34,125.52l-.33-.37Z"/><path class="cls-2" d="M107.17,98.37l-.78.67Z"/><path class="cls-2" d="M111.14,95.13l-1,.75Z"/><path class="cls-2" d="M100.54,104.74l0,.05Z"/><path class="cls-2" d="M104.68,100.6l-.6.57Z"/><path class="cls-2" d="M128.8,84.75c-.72.31-1.44.64-2.16,1C127.36,85.39,128.08,85.06,128.8,84.75Z"/><path class="cls-2" d="M98.78,106.7l-.4.45Z"/><path class="cls-2" d="M125.45,86.28c-1,.46-1.88,1-2.8,1.44C123.57,87.23,124.5,86.74,125.45,86.28Z"/><path class="cls-2" d="M114,93.05c-.42.28-.82.57-1.23.87C113.18,93.62,113.58,93.33,114,93.05Z"/><path class="cls-2" d="M121.21,88.52l-1.65.94C120.11,89.14,120.65,88.82,121.21,88.52Z"/><path class="cls-2" d="M118.09,90.34c-.85.52-1.69,1.06-2.51,1.61C116.4,91.4,117.24,90.86,118.09,90.34Z"/><path class="cls-2" d="M83.73,91.7q2.19-2.43,4.52-4.72Q85.93,89.28,83.73,91.7Z"/><path class="cls-2" d="M93.47,113.4c-.08.11-.15.22-.23.32C93.32,113.62,93.39,113.51,93.47,113.4Z"/><path class="cls-2" d="M81.55,94.21c.63-.74,1.26-1.47,1.9-2.19C82.81,92.74,82.18,93.47,81.55,94.21Z"/><path class="cls-2" d="M88.68,86.56q1.06-1,2.16-2Q89.75,85.53,88.68,86.56Z"/><path class="cls-2" d="M91,84.34c.81-.74,1.64-1.47,2.47-2.19C92.67,82.87,91.84,83.6,91,84.34Z"/><path class="cls-2" d="M77.18,99.75c1.3-1.76,2.65-3.49,4.06-5.17C79.83,96.26,78.48,98,77.18,99.75Z"/><path class="cls-2" d="M71.41,108.44c.55-.93,1.12-1.84,1.69-2.75C72.53,106.6,72,107.51,71.41,108.44Z"/><path class="cls-2" d="M88.81,120.69a1,1,0,0,1-.08.14A1,1,0,0,0,88.81,120.69Z"/><path class="cls-2" d="M132.71,83.16c-.87.33-1.74.67-2.59,1C131,83.83,131.84,83.49,132.71,83.16Z"/><path class="cls-2" d="M73.11,105.68c.61-1,1.23-1.9,1.87-2.84C74.34,103.78,73.72,104.72,73.11,105.68Z"/><path class="cls-2" d="M75.16,102.59c.56-.83,1.14-1.64,1.73-2.44C76.3,101,75.72,101.76,75.16,102.59Z"/><path class="cls-2" d="M186.39,81.24l-2-.55Z"/><path class="cls-2" d="M181.75,80l-1.81-.4Z"/><path class="cls-2" d="M184.08,80.59l-1.88-.47Z"/><path class="cls-2" d="M179.4,79.49l-1.76-.34Z"/><path class="cls-2" d="M177,79c-.56-.1-1.13-.19-1.7-.27C175.89,78.85,176.46,78.94,177,79Z"/><path class="cls-2" d="M190.93,82.73c-.69-.25-1.38-.48-2.08-.71C189.55,82.25,190.24,82.48,190.93,82.73Z"/><path class="cls-2" d="M188.67,82l-2-.63Z"/><path class="cls-2" d="M193.16,83.57c-.7-.28-1.42-.55-2.13-.8C191.74,83,192.46,83.29,193.16,83.57Z"/><path class="cls-2" d="M93.8,81.9c.72-.62,1.45-1.22,2.19-1.82C95.25,80.68,94.52,81.28,93.8,81.9Z"/><path class="cls-2" d="M174.63,78.66c-.55-.09-1.11-.15-1.67-.22C173.52,78.51,174.08,78.57,174.63,78.66Z"/><path class="cls-2" d="M145,79.57c-1.18.25-2.35.52-3.52.82C142.68,80.09,143.85,79.82,145,79.57Z"/><path class="cls-2" d="M172.22,78.34l-1.64-.17Z"/><path class="cls-2" d="M157.48,77.93q-1.62.09-3.21.24Q155.86,78,157.48,77.93Z"/><path class="cls-2" d="M148.89,78.86c-1,.16-1.92.33-2.87.52C147,79.19,147.93,79,148.89,78.86Z"/><path class="cls-2" d="M140.61,80.63c-.9.24-1.79.49-2.68.76C138.82,81.12,139.71,80.87,140.61,80.63Z"/><path class="cls-2" d="M136.76,81.76c-1,.33-2.08.67-3.1,1C134.68,82.43,135.72,82.09,136.76,81.76Z"/><path class="cls-2" d="M153.59,78.23c-1.24.13-2.48.29-3.7.47C151.11,78.52,152.35,78.36,153.59,78.23Z"/><path class="cls-2" d="M162.4,77.77c-1.3,0-2.59,0-3.88.1C159.81,77.81,161.1,77.77,162.4,77.77Z"/><path class="cls-2" d="M169.79,78.09c-.55,0-1.11-.08-1.66-.12C168.68,78,169.24,78,169.79,78.09Z"/><path class="cls-2" d="M167.34,77.91l-1.73-.07Z"/><path class="cls-2" d="M164.87,77.81c-.82,0-1.64,0-2.47,0C163.23,77.77,164.05,77.78,164.87,77.81Z"/><path class="cls-2" d="M151.41,57.18c1.08-.11,2.17-.2,3.27-.28C153.58,57,152.49,57.07,151.41,57.18Z"/><path class="cls-2" d="M226.05,77.93l1,.74Z"/><path class="cls-2" d="M148.12,57.58c.9-.12,1.81-.24,2.73-.33C149.93,57.34,149,57.46,148.12,57.58Z"/><path class="cls-2" d="M237.44,87.88l.82.84Z"/><path class="cls-2" d="M144.53,58.13q1.31-.23,2.64-.42Q145.84,57.91,144.53,58.13Z"/><path class="cls-2" d="M155.54,56.84c.85-.05,1.7-.1,2.55-.13C157.24,56.74,156.39,56.79,155.54,56.84Z"/><path class="cls-2" d="M221.11,74.42l1,.69Z"/><path class="cls-2" d="M159.05,56.67c1.11,0,2.23-.06,3.35-.06C161.28,56.61,160.16,56.64,159.05,56.67Z"/><path class="cls-2" d="M223.61,76.14l1,.72Z"/><path class="cls-2" d="M137.49,59.57c.83-.2,1.66-.38,2.49-.56C139.15,59.19,138.32,59.37,137.49,59.57Z"/><path class="cls-2" d="M130.42,61.55c1-.33,2.05-.64,3.09-.94C132.47,60.91,131.44,61.22,130.42,61.55Z"/><path class="cls-2" d="M235.28,85.76l.85.82Z"/><path class="cls-2" d="M133.64,60.58c1-.28,2-.54,3-.79C135.62,60,134.62,60.3,133.64,60.58Z"/><path class="cls-2" d="M127.22,62.62l2.4-.82Z"/><path class="cls-2" d="M233.06,83.71l.87.8Z"/><path class="cls-2" d="M140.73,58.84c1.05-.22,2.11-.42,3.18-.61C142.84,58.42,141.78,58.62,140.73,58.84Z"/><path class="cls-2" d="M230.78,81.72l.9.78Z"/><path class="cls-2" d="M165.64,56.66l1.12.05Z"/><path class="cls-2" d="M228.45,79.79l.92.76Z"/><path class="cls-2" d="M218.57,72.77l1,.67Z"/><path class="cls-2" d="M199.43,63.29l1.23.48Z"/><path class="cls-2" d="M193.59,61.3l1.28.41Z"/><path class="cls-2" d="M210.64,68.25l1.12.59Z"/><path class="cls-2" d="M207.9,66.89l1.14.56Z"/><path class="cls-2" d="M202.3,64.41l1.2.51Z"/><path class="cls-2" d="M205.12,65.61l1.17.54Z"/><path class="cls-2" d="M190.61,60.43l1.3.38Z"/><path class="cls-2" d="M196.53,62.25l1.26.45Z"/><path class="cls-2" d="M216,71.19l1.07.64Z"/><path class="cls-2" d="M172.05,57.05l1.34.14Z"/><path class="cls-2" d="M184.55,58.94l1.34.31Z"/><path class="cls-2" d="M175.22,57.39c.46,0,.91.12,1.36.18C176.13,57.51,175.68,57.44,175.22,57.39Z"/><path class="cls-2" d="M168.86,56.81l1.27.09Z"/><path class="cls-2" d="M181.47,58.33l1.36.27Z"/><path class="cls-2" d="M213.33,69.68l1.09.62Z"/><path class="cls-2" d="M178.36,57.81l1.36.23Z"/><path class="cls-2" d="M187.6,59.64l1.31.34Z"/><path class="cls-2" d="M104.93,73.59c.91-.59,1.83-1.17,2.76-1.73C106.76,72.42,105.84,73,104.93,73.59Z"/><path class="cls-2" d="M241.58,92.29l.77.88Z"/><path class="cls-2" d="M114,68.35c1-.49,1.91-1,2.88-1.43C115.86,67.38,114.9,67.86,114,68.35Z"/><path class="cls-2" d="M117.32,66.69c.81-.38,1.62-.75,2.44-1.11C118.94,65.94,118.13,66.31,117.32,66.69Z"/><path class="cls-2" d="M102.17,75.45c.74-.51,1.48-1,2.23-1.51C103.65,74.43,102.91,74.94,102.17,75.45Z"/><path class="cls-2" d="M69.55,111.71c.52-.95,1-1.89,1.6-2.83a105.89,105.89,0,0,0-8.9,87.65l19.08-10a84.1,84.1,0,0,1,6.06-63.27h0Z"/><path class="cls-2" d="M111.09,69.89c.78-.44,1.58-.86,2.37-1.28C112.67,69,111.87,69.45,111.09,69.89Z"/><path class="cls-2" d="M107.74,71.83c.89-.54,1.78-1.06,2.69-1.57C109.52,70.77,108.63,71.29,107.74,71.83Z"/><path class="cls-2" d="M243.55,94.58c.25.3.5.6.74.91C244.05,95.18,243.8,94.88,243.55,94.58Z"/><path class="cls-2" d="M120.52,65.24c.89-.38,1.78-.75,2.68-1.11C122.3,64.49,121.41,64.86,120.52,65.24Z"/><path class="cls-2" d="M245.46,96.93l.72.93Z"/><path class="cls-2" d="M246.91,98.82l-19.09,10a85.06,85.06,0,0,0-34.65-25.23,85.13,85.13,0,0,1,35.31,26.06l19.07-10Z"/><path class="cls-2" d="M239.54,90.05l.79.87Z"/><path class="cls-2" d="M96.49,79.68c1.68-1.34,3.4-2.64,5.17-3.88C99.89,77,98.17,78.34,96.49,79.68Z"/><path class="cls-2" d="M123.48,64c1-.39,2-.77,3-1.13C125.48,63.24,124.48,63.62,123.48,64Z"/><path class="cls-2" d="M171.49,100l-.83-.19Z"/><path class="cls-2" d="M170,99.71l-.85-.16Z"/><path class="cls-2" d="M191,112.39c-.21-.25-.42-.51-.64-.76C190.57,111.88,190.78,112.14,191,112.39Z"/><path class="cls-2" d="M195.74,119.82c-.16-.34-.33-.67-.5-1C195.41,119.15,195.58,119.48,195.74,119.82Z"/><path class="cls-2" d="M172.93,100.44l-.82-.23Z"/><path class="cls-2" d="M174.35,100.89l-.81-.26Z"/><path class="cls-2" d="M126.88,146.46l0-.12Z"/><path class="cls-2" d="M191.9,113.54c-.2-.27-.41-.54-.62-.8C191.49,113,191.7,113.27,191.9,113.54Z"/><path class="cls-2" d="M165.5,99.06l-1-.07Z"/><path class="cls-2" d="M125.59,139.91c0-.16,0-.32,0-.48C125.55,139.59,125.57,139.75,125.59,139.91Z"/><path class="cls-2" d="M175.74,101.39l-.79-.29Z"/><path class="cls-2" d="M164,99q-.78,0-1.56,0Q163.18,98.93,164,99Z"/><path class="cls-2" d="M188.37,109.53l.68.68Z"/><path class="cls-2" d="M168.54,99.43l-.88-.13Z"/><path class="cls-2" d="M167,99.21l-.93-.09Z"/><path class="cls-2" d="M196.36,121.17c-.15-.35-.31-.7-.47-1C196.05,120.47,196.21,120.82,196.36,121.17Z"/><path class="cls-2" d="M126.45,144.86l-.06-.24Z"/><path class="cls-2" d="M184.69,106.35l-.73-.53Z"/><path class="cls-2" d="M126.09,143.23c0-.11,0-.22-.07-.34C126.05,143,126.07,143.12,126.09,143.23Z"/><path class="cls-2" d="M183.5,105.5l-.73-.5Z"/><path class="cls-2" d="M182.29,104.69l-.75-.46Z"/><path class="cls-2" d="M194.35,117.21c-.18-.31-.37-.62-.56-.93C194,116.59,194.17,116.9,194.35,117.21Z"/><path class="cls-2" d="M186.94,108.2l-.7-.61Z"/><path class="cls-2" d="M193.58,116c-.19-.3-.38-.59-.58-.88C193.2,115.36,193.39,115.65,193.58,116Z"/><path class="cls-2" d="M185.83,107.25l-.71-.57Z"/><path class="cls-2" d="M146.63,137.67a16.22,16.22,0,0,1-.1-1.72A16.22,16.22,0,0,0,146.63,137.67Z"/><path class="cls-2" d="M177.11,102l-.78-.33Z"/><path class="cls-2" d="M195.07,118.49c-.17-.32-.35-.64-.53-1C194.72,117.85,194.9,118.17,195.07,118.49Z"/><path class="cls-2" d="M190.05,111.29c-.22-.25-.45-.49-.67-.73C189.6,110.8,189.83,111,190.05,111.29Z"/><path class="cls-2" d="M192.76,114.73q-.28-.44-.6-.84Q192.48,114.29,192.76,114.73Z"/><path class="cls-2" d="M179.76,103.22c-.25-.14-.51-.26-.77-.39C179.25,103,179.51,103.08,179.76,103.22Z"/><path class="cls-2" d="M181,103.93l-.76-.43Z"/><path class="cls-2" d="M125.8,141.59l-.06-.43Z"/><path class="cls-2" d="M188,109.18l-.69-.64Z"/><path class="cls-2" d="M178.45,102.56c-.26-.13-.52-.24-.78-.36C177.93,102.32,178.19,102.43,178.45,102.56Z"/><path class="cls-2" d="M169.12,121.59l-.7-.32Z"/><path class="cls-2" d="M177.18,130.22c-.14-.37-.29-.72-.46-1.07C176.89,129.5,177,129.85,177.18,130.22Z"/><path class="cls-2" d="M175.84,127.53c-.19-.3-.39-.59-.6-.88C175.45,126.94,175.65,127.23,175.84,127.53Z"/><path class="cls-2" d="M167.68,121c-.22-.08-.45-.17-.68-.23C167.23,120.83,167.46,120.92,167.68,121Z"/><path class="cls-2" d="M147.39,141.1q-.24-.71-.42-1.44Q147.15,140.4,147.39,141.1Z"/><path class="cls-2" d="M149.86,145.68c-.27-.36-.53-.72-.77-1.09C149.33,145,149.59,145.32,149.86,145.68Z"/><path class="cls-2" d="M177.66,131.65c-.11-.39-.24-.77-.37-1.14C177.42,130.88,177.55,131.26,177.66,131.65Z"/><path class="cls-2" d="M172.93,124.1c-.23-.2-.45-.4-.69-.59C172.48,123.7,172.71,123.9,172.93,124.1Z"/><path class="cls-2" d="M166.16,120.55l-.64-.16Z"/><path class="cls-2" d="M148.89,144.28c-.25-.4-.47-.81-.68-1.23C148.42,143.47,148.64,143.88,148.89,144.28Z"/><path class="cls-2" d="M148.05,142.73c-.2-.43-.39-.87-.56-1.33C147.66,141.86,147.85,142.3,148.05,142.73Z"/><path class="cls-2" d="M175,126.3c-.21-.27-.42-.53-.64-.78C174.56,125.77,174.77,126,175,126.3Z"/><path class="cls-2" d="M176.57,128.84c-.17-.33-.34-.66-.53-1C176.23,128.18,176.4,128.51,176.57,128.84Z"/><path class="cls-2" d="M171.75,123.15c-.23-.17-.46-.34-.7-.5C171.29,122.81,171.52,123,171.75,123.15Z"/><path class="cls-2" d="M170.48,122.31c-.23-.14-.46-.28-.71-.41C170,122,170.25,122.17,170.48,122.31Z"/><path class="cls-2" d="M125.45,138.16c0-.15,0-.31,0-.47C125.42,137.85,125.44,138,125.45,138.16Z"/><path class="cls-2" d="M173.34,124.46l.67.69Z"/><path class="cls-2" d="M178.19,134.67c0-.43-.09-.86-.15-1.28C178.1,133.81,178.16,134.24,178.19,134.67Z"/><path class="cls-2" d="M197.44,124c-.13-.38-.26-.76-.4-1.13C197.18,123.21,197.31,123.59,197.44,124Z"/><path class="cls-2" d="M146.91,139.41c-.11-.52-.2-1-.27-1.57C146.71,138.37,146.8,138.89,146.91,139.41Z"/><path class="cls-2" d="M197.53,124.24c0,.11.07.22.11.34h0Z"/><path class="cls-2" d="M196.93,122.55c-.14-.36-.29-.72-.44-1.08C196.64,121.83,196.79,122.19,196.93,122.55Z"/><path class="cls-2" d="M152.13,148c-.31-.26-.6-.53-.88-.81C151.53,147.51,151.82,147.78,152.13,148Z"/><path class="cls-2" d="M164.52,120.24l-.54-.08Z"/><path class="cls-2" d="M150.9,146.88c-.27-.29-.53-.58-.78-.89C150.37,146.3,150.63,146.59,150.9,146.88Z"/><path class="cls-2" d="M178,133.14c-.08-.41-.17-.82-.27-1.22C177.83,132.32,177.92,132.73,178,133.14Z"/><path class="cls-2" d="M209,67.45l1.6.8Z"/><path class="cls-2" d="M236.13,86.58c.44.43.88.86,1.31,1.3C237,87.44,236.57,87,236.13,86.58Z"/><path class="cls-2" d="M231.68,82.5l1.38,1.21Z"/><path class="cls-2" d="M238.26,88.72l1.28,1.33Z"/><path class="cls-2" d="M214.42,70.3l1.55.89Z"/><path class="cls-2" d="M233.93,84.51c.45.42.91.83,1.35,1.25C234.84,85.34,234.38,84.93,233.93,84.51Z"/><path class="cls-2" d="M244.29,95.49q.59.7,1.17,1.44Q244.88,96.2,244.29,95.49Z"/><path class="cls-2" d="M219.61,73.44l1.5,1Z"/><path class="cls-2" d="M222.13,75.11l1.48,1Z"/><path class="cls-2" d="M211.76,68.84c.52.28,1.05.55,1.57.84C212.81,69.39,212.28,69.12,211.76,68.84Z"/><path class="cls-2" d="M240.33,90.92c.42.45.84.91,1.25,1.37C241.17,91.83,240.75,91.37,240.33,90.92Z"/><path class="cls-2" d="M217,71.83l1.53.94Z"/><path class="cls-2" d="M246.92,98.81c-.24-.32-.49-.63-.74-1l.73,1Z"/><path class="cls-2" d="M229.37,80.55l1.41,1.17Z"/><path class="cls-2" d="M100.54,104.74c1.14-1.22,2.33-2.41,3.54-3.57C102.87,102.33,101.68,103.52,100.54,104.74Z"/><path class="cls-2" d="M227,78.67l1.44,1.12Z"/><path class="cls-2" d="M242.35,93.17l1.2,1.41Z"/><path class="cls-2" d="M224.6,76.86l1.45,1.07Z"/><path class="cls-2" d="M188.91,60c.57.15,1.14.29,1.7.45C190.05,60.27,189.48,60.13,188.91,60Z"/><path class="cls-2" d="M126.49,62.88l.73-.26Z"/><path class="cls-2" d="M112.77,93.92c-.55.4-1.1.8-1.63,1.21C111.67,94.72,112.22,94.32,112.77,93.92Z"/><path class="cls-2" d="M115.58,92c-.54.36-1.06.73-1.58,1.1C114.52,92.68,115,92.31,115.58,92Z"/><path class="cls-2" d="M119.56,89.46c-.49.29-1,.58-1.47.88C118.57,90,119.07,89.75,119.56,89.46Z"/><path class="cls-2" d="M106.39,99q-.87.76-1.71,1.56Q105.52,99.81,106.39,99Z"/><path class="cls-2" d="M123.2,64.13l.28-.12Z"/><path class="cls-2" d="M119.76,65.58l.76-.34Z"/><path class="cls-2" d="M122.65,87.72c-.49.26-1,.53-1.44.8C121.69,88.25,122.16,88,122.65,87.72Z"/><path class="cls-2" d="M110.19,95.88c-1,.8-2,1.63-3,2.49C108.16,97.51,109.16,96.68,110.19,95.88Z"/><path class="cls-2" d="M130.12,84.19l-1.32.56Z"/><path class="cls-2" d="M137.93,81.39l-1.17.37Z"/><path class="cls-2" d="M206.29,66.15l1.61.74Z"/><path class="cls-2" d="M146,79.38l-1,.19Z"/><path class="cls-2" d="M141.51,80.39c-.3.07-.59.16-.9.24C140.92,80.55,141.21,80.46,141.51,80.39Z"/><path class="cls-2" d="M100.5,104.79c-.59.62-1.16,1.26-1.72,1.91C99.34,106.05,99.91,105.41,100.5,104.79Z"/><path class="cls-2" d="M126.64,85.73l-1.19.55Z"/><path class="cls-2" d="M129.62,61.8l.8-.25Z"/><path class="cls-2" d="M133.51,60.61l.13,0Z"/><path class="cls-2" d="M133.66,82.81l-.95.35Z"/><path class="cls-2" d="M76.89,100.15l.29-.4Z"/><path class="cls-2" d="M104.4,73.94l.53-.35Z"/><path class="cls-2" d="M83.45,92l.28-.32Z"/><path class="cls-2" d="M116.83,66.92l.49-.23Z"/><path class="cls-2" d="M81.24,94.58l.31-.37Z"/><path class="cls-2" d="M88.25,87l.43-.42Z"/><path class="cls-2" d="M93.5,82.15l.3-.25Z"/><path class="cls-2" d="M101.66,75.8l.51-.35Z"/><path class="cls-2" d="M90.84,84.52l.19-.18Z"/><path class="cls-2" d="M107.69,71.86l0,0Z"/><path class="cls-2" d="M93.24,113.72q-2.37,3.38-4.43,7Q90.87,117.09,93.24,113.72Z"/><path class="cls-2" d="M113.46,68.61l.49-.26Z"/><path class="cls-2" d="M98.38,107.15q-2.59,3-4.91,6.25Q95.78,110.16,98.38,107.15Z"/><path class="cls-2" d="M88.73,120.83c-.46.81-.91,1.63-1.34,2.46C87.82,122.46,88.27,121.64,88.73,120.83Z"/><path class="cls-2" d="M71.15,108.88c.09-.14.18-.29.26-.44C71.33,108.59,71.24,108.74,71.15,108.88Z"/><path class="cls-2" d="M75,102.84l.18-.25Z"/><path class="cls-2" d="M110.43,70.26l.66-.37Z"/><path class="cls-2" d="M73.1,105.69h0Z"/><path class="cls-2" d="M136.62,59.79l.87-.22Z"/><path class="cls-2" d="M173.39,57.19c.61.06,1.22.12,1.83.2C174.61,57.31,174,57.25,173.39,57.19Z"/><path class="cls-2" d="M193.17,83.57h0Z"/><path class="cls-2" d="M191,82.77l-.1,0Z"/><path class="cls-2" d="M176.58,57.57c.59.08,1.19.15,1.78.24C177.77,57.72,177.17,57.65,176.58,57.57Z"/><path class="cls-2" d="M166.76,56.71l2.1.1Z"/><path class="cls-2" d="M170.13,56.9l1.92.15Z"/><path class="cls-2" d="M186.66,81.32l-.27-.08Z"/><path class="cls-2" d="M179.72,58l1.75.29Z"/><path class="cls-2" d="M188.85,82l-.18-.07Z"/><path class="cls-2" d="M197.79,62.7l1.64.59Z"/><path class="cls-2" d="M184.43,80.69l-.35-.1Z"/><path class="cls-2" d="M200.66,63.77l1.64.64Z"/><path class="cls-2" d="M203.5,64.92c.54.23,1.08.45,1.62.69C204.58,65.37,204,65.15,203.5,64.92Z"/><path class="cls-2" d="M194.87,61.71l1.66.54Z"/><path class="cls-2" d="M96,80.08l.5-.4Z"/><path class="cls-2" d="M191.91,60.81l1.68.49Z"/><path class="cls-2" d="M185.89,59.25c.57.13,1.14.25,1.71.39C187,59.5,186.46,59.38,185.89,59.25Z"/><path class="cls-2" d="M182.83,58.6l1.72.34Z"/><path class="cls-2" d="M162.4,56.61c1.08,0,2.16,0,3.24,0C164.56,56.63,163.48,56.61,162.4,56.61Z"/><path class="cls-2" d="M165.61,77.84c-.25,0-.49,0-.74,0C165.12,77.81,165.36,77.83,165.61,77.84Z"/><path class="cls-2" d="M150.85,57.25l.56-.07Z"/><path class="cls-2" d="M147.17,57.71l1-.13Z"/><path class="cls-2" d="M168.13,78l-.79-.06Z"/><path class="cls-2" d="M158.52,77.87c-.35,0-.7,0-1,.06C157.82,77.9,158.17,77.89,158.52,77.87Z"/><path class="cls-2" d="M149.89,78.7l-1,.16Z"/><path class="cls-2" d="M143.91,58.23l.62-.1Z"/><path class="cls-2" d="M154.27,78.17l-.68.06Z"/><path class="cls-2" d="M177.64,79.15,177,79Z"/><path class="cls-2" d="M158.09,56.71l1,0Z"/><path class="cls-2" d="M182.2,80.12l-.45-.11Z"/><path class="cls-2" d="M179.94,79.61l-.54-.12Z"/><path class="cls-2" d="M140,59l.75-.17Z"/><path class="cls-2" d="M170.58,78.17l-.79-.08Z"/><path class="cls-2" d="M173,78.44l-.74-.1Z"/><path class="cls-2" d="M154.68,56.9l.86-.06Z"/><path class="cls-2" d="M175.32,78.77l-.69-.11Z"/><path class="cls-3" d="M187.6,108.79l-.68-.62Z"/><path class="cls-3" d="M185.11,106.68l-.66-.51Z"/><path class="cls-3" d="M186.39,107.71l-.68-.56Z"/><path class="cls-3" d="M181.88,104.43l-.66-.39Z"/><path class="cls-3" d="M183.25,105.32l-.62-.41Z"/><path class="cls-3" d="M192.36,114.16c-.2-.29-.42-.57-.63-.85C191.94,113.59,192.16,113.87,192.36,114.16Z"/><path class="cls-3" d="M190.44,111.73c-.54-.62-1.09-1.23-1.67-1.81C189.35,110.5,189.9,111.11,190.44,111.73Z"/><path class="cls-3" d="M194.68,117.78a36.29,36.29,0,0,0-2.05-3.25A36.29,36.29,0,0,1,194.68,117.78Z"/><path class="cls-3" d="M195.33,119c-.18-.35-.36-.7-.55-1C195,118.28,195.15,118.63,195.33,119Z"/><path class="cls-3" d="M180.45,103.6l-.65-.36Z"/><path class="cls-3" d="M191.41,112.9l-.66-.81Z"/><path class="cls-3" d="M178.92,102.79l-.57-.28Z"/><path class="cls-3" d="M166.51,99.16l-.61-.06Z"/><path class="cls-3" d="M168.23,99.38l-.56-.08Z"/><path class="cls-3" d="M164.7,99l-.55,0Z"/><path class="cls-3" d="M188.06,109.23l.7.67Z"/><path class="cls-3" d="M197.65,124.57,178.2,134.74c0,.4.06.8.06,1.21a15.87,15.87,0,0,1-25.9,12.3l-14.71,7.69,26.18,17a36.92,36.92,0,0,0,35.59-37A37.53,37.53,0,0,0,197.65,124.57Z"/><path class="cls-3" d="M175.37,101.25l-.6-.22Z"/><path class="cls-3" d="M169.91,99.68l-.25,0Z"/><path class="cls-3" d="M196,120.37c-.16-.35-.33-.69-.5-1C195.68,119.68,195.85,120,196,120.37Z"/><path class="cls-3" d="M176.91,101.86l-.45-.18Z"/><path class="cls-3" d="M173.77,100.7l-.62-.19Z"/><path class="cls-3" d="M172.07,100.2l-.53-.14Z"/><path class="cls-3" d="M148.25,143.13l-.27-.56Z"/><path class="cls-3" d="M176,127.83l-.15-.25Z"/><path class="cls-3" d="M177.71,131.83l0-.12Z"/><path class="cls-3" d="M176.7,129.1l-.1-.2Z"/><path class="cls-3" d="M146.71,138.23c0-.18-.06-.36-.08-.54C146.65,137.87,146.68,138.05,146.71,138.23Z"/><path class="cls-3" d="M177.26,130.44l-.06-.16A.76.76,0,0,1,177.26,130.44Z"/><path class="cls-3" d="M178,133.26s0,0,0-.06S178,133.24,178,133.26Z"/><path class="cls-3" d="M151.1,147.1,151,147Z"/><path class="cls-3" d="M147.07,140c-.06-.2-.12-.41-.16-.61C147,139.58,147,139.79,147.07,140Z"/><path class="cls-3" d="M197.65,124.57a36.48,36.48,0,0,0-1.49-3.85A36.48,36.48,0,0,1,197.65,124.57Z"/><path class="cls-3" d="M150,145.88l-.27-.36Z"/><path class="cls-3" d="M147.58,141.61l-.22-.6Z"/><path class="cls-3" d="M149.07,144.56l-.3-.49Z"/><path class="cls-3" d="M167,120.77c-.28-.09-.56-.15-.84-.22C166.45,120.62,166.73,120.68,167,120.77Z"/><path class="cls-3" d="M165.52,120.39c-.32-.06-.66-.1-1-.15C164.86,120.29,165.2,120.33,165.52,120.39Z"/><path class="cls-3" d="M173,124.13l.36.33Z"/><path class="cls-3" d="M164,120.16c-.52,0-1-.08-1.58-.08C162.93,120.08,163.46,120.11,164,120.16Z"/><path class="cls-3" d="M168.43,121.27l-.73-.26Z"/><path class="cls-3" d="M172.23,123.51a5.3,5.3,0,0,0-.45-.34A5.3,5.3,0,0,1,172.23,123.51Z"/><path class="cls-3" d="M171.05,122.65l-.54-.33Z"/><path class="cls-3" d="M175.23,126.63l-.22-.29Z"/><path class="cls-3" d="M169.78,121.9l-.63-.3Z"/><path class="cls-3" d="M174.33,125.5l-.29-.31Z"/><path class="cls-3" d="M195.11,84.36c-1.07-.45-2.15-.88-3.25-1.29C193,83.48,194,83.91,195.11,84.36Z"/><path class="cls-3" d="M202.24,87.77q-1.53-.83-3.09-1.59Q200.71,86.95,202.24,87.77Z"/><path class="cls-3" d="M198.74,86c-1-.48-2-.94-3-1.38C196.72,85.05,197.73,85.51,198.74,86Z"/><path class="cls-3" d="M179.34,79.48c-1.22-.25-2.46-.47-3.7-.66C176.88,79,178.12,79.23,179.34,79.48Z"/><path class="cls-3" d="M205.84,89.81c-1-.57-1.9-1.12-2.87-1.65C203.94,88.69,204.89,89.24,205.84,89.81Z"/><path class="cls-3" d="M187.13,81.47c-1.15-.35-2.31-.69-3.48-1C184.82,80.78,186,81.12,187.13,81.47Z"/><path class="cls-3" d="M183.2,80.37c-1.17-.3-2.35-.57-3.54-.82C180.85,79.8,182,80.07,183.2,80.37Z"/><path class="cls-3" d="M224.83,105.34c-.72-.78-1.45-1.54-2.19-2.3C223.38,103.8,224.11,104.56,224.83,105.34Z"/><path class="cls-3" d="M227.25,108.12c-.6-.71-1.2-1.41-1.82-2.1C226.05,106.71,226.65,107.41,227.25,108.12Z"/><path class="cls-3" d="M175,78.72c-1.22-.19-2.43-.34-3.66-.47C172.59,78.38,173.81,78.53,175,78.72Z"/><path class="cls-3" d="M215.71,96.75c-.77-.63-1.55-1.24-2.34-1.84C214.16,95.51,214.94,96.12,215.71,96.75Z"/><path class="cls-3" d="M218.82,99.41c-.79-.71-1.59-1.41-2.4-2.09C217.23,98,218,98.7,218.82,99.41Z"/><path class="cls-3" d="M212.71,94.41c-.84-.63-1.7-1.24-2.57-1.83C211,93.17,211.87,93.78,212.71,94.41Z"/><path class="cls-3" d="M209.4,92.07q-1.36-.91-2.76-1.77Q208,91.16,209.4,92.07Z"/><path class="cls-3" d="M191.13,82.81c-1.09-.4-2.19-.77-3.3-1.13C188.94,82,190,82.41,191.13,82.81Z"/><path class="cls-3" d="M234.71,85.23q-.9-.86-1.83-1.68Q233.81,84.38,234.71,85.23Z"/><path class="cls-3" d="M213,69.5c-.87-.47-1.75-.94-2.63-1.39C211.26,68.56,212.14,69,213,69.5Z"/><path class="cls-3" d="M201.74,64.19c-.66-.27-1.33-.53-2-.78C200.41,63.66,201.08,63.92,201.74,64.19Z"/><path class="cls-3" d="M174.44,57.3l-1.93-.2Z"/><path class="cls-3" d="M199.06,63.15q-2.72-1-5.49-1.86Q196.34,62.15,199.06,63.15Z"/><path class="cls-3" d="M220.44,74l-1.85-1.19Z"/><path class="cls-3" d="M243,93.92c-.53-.63-1.08-1.25-1.62-1.86C241.92,92.67,242.47,93.29,243,93.92Z"/><path class="cls-3" d="M171.39,57l-1.88-.14Z"/><path class="cls-3" d="M232.45,83.16c-.58-.51-1.17-1-1.77-1.52C231.28,82.14,231.87,82.65,232.45,83.16Z"/><path class="cls-3" d="M177.73,57.73c-.75-.11-1.51-.22-2.27-.31C176.22,57.51,177,57.62,177.73,57.73Z"/><path class="cls-3" d="M207.17,66.55c-.64-.3-1.28-.6-1.93-.88C205.89,66,206.53,66.25,207.17,66.55Z"/><path class="cls-3" d="M230.24,81.26q-1-.81-2-1.59Q229.28,80.45,230.24,81.26Z"/><path class="cls-3" d="M228,79.46q-2.29-1.83-4.7-3.52Q225.73,77.63,228,79.46Z"/><path class="cls-3" d="M184.13,58.86c-.74-.16-1.48-.3-2.23-.44C182.65,58.56,183.39,58.7,184.13,58.86Z"/><path class="cls-3" d="M223.09,75.77c-.69-.49-1.39-1-2.09-1.43C221.7,74.81,222.4,75.28,223.09,75.77Z"/><path class="cls-3" d="M204.43,65.31q-.93-.41-1.86-.78Q203.5,64.91,204.43,65.31Z"/><path class="cls-3" d="M210.27,68.06q-1.2-.61-2.43-1.2Q209.07,67.44,210.27,68.06Z"/><path class="cls-3" d="M215.49,70.9l-2.27-1.28Z"/><path class="cls-3" d="M245.17,96.56c.59.74,1.18,1.49,1.75,2.25l-19.1,10a84.16,84.16,0,0,1,1.85,104.69c-7.37-9-19.87-15.05-32.54-18.92l49.32,32a105.69,105.69,0,0,0-1.28-130Z"/><path class="cls-3" d="M165.4,56.66c-1,0-2,0-3,0C163.4,56.61,164.4,56.63,165.4,56.66Z"/><path class="cls-3" d="M187,59.5l-1.9-.44Z"/><path class="cls-3" d="M166.39,77.87c-1.32-.06-2.65-.1-4-.1C163.74,77.77,165.07,77.81,166.39,77.87Z"/><path class="cls-3" d="M235,85.48c2.13,2,4.17,4.1,6.12,6.27C239.15,89.58,237.11,87.48,235,85.48Z"/><path class="cls-3" d="M189.86,60.23,188,59.74Z"/><path class="cls-3" d="M219.62,100.12c.76.71,1.52,1.43,2.26,2.17C221.14,101.55,220.38,100.83,219.62,100.12Z"/><path class="cls-3" d="M170.68,78.18c-1.25-.12-2.49-.22-3.75-.28C168.19,78,169.43,78.06,170.68,78.18Z"/><path class="cls-3" d="M244.9,96.22q-.77-1-1.56-1.89Q244.14,95.26,244.9,96.22Z"/><path class="cls-3" d="M218,72.39c-.62-.39-1.25-.77-1.89-1.15C216.7,71.62,217.33,72,218,72.39Z"/><path class="cls-3" d="M181.26,58.3c-1-.18-1.92-.34-2.89-.48C179.34,58,180.3,58.12,181.26,58.3Z"/><path class="cls-3" d="M192.84,61.08c-.67-.21-1.35-.41-2-.6C191.49,60.67,192.17,60.87,192.84,61.08Z"/><path class="cls-3" d="M168.39,56.79c-.67,0-1.35-.07-2-.09C167,56.72,167.72,56.75,168.39,56.79Z"/><path class="cls-3" d="M186.92,108.17l-.53-.46Z"/><path class="cls-3" d="M181.22,104l-.77-.44Z"/><path class="cls-3" d="M175,126.34c-.22-.28-.44-.57-.68-.84C174.57,125.77,174.79,126.06,175,126.34Z"/><path class="cls-3" d="M182.63,104.91l-.75-.48Z"/><path class="cls-3" d="M173,124.13a8.67,8.67,0,0,0-.74-.62A8.67,8.67,0,0,1,173,124.13Z"/><path class="cls-3" d="M185.71,107.15l-.6-.47Z"/><path class="cls-3" d="M184.45,106.17c-.39-.29-.8-.58-1.2-.85C183.65,105.59,184.06,105.88,184.45,106.17Z"/><path class="cls-3" d="M192.63,114.53l-.27-.37Z"/><path class="cls-3" d="M164.53,120.24l-.55-.08Z"/><path class="cls-3" d="M196.16,120.72l-.15-.35Z"/><path class="cls-3" d="M188.06,109.23c-.15-.15-.3-.3-.46-.44C187.76,108.93,187.91,109.08,188.06,109.23Z"/><path class="cls-3" d="M170.51,122.32l-.73-.42Z"/><path class="cls-3" d="M166.17,120.55l-.65-.16Z"/><path class="cls-3" d="M167.7,121c-.23-.08-.46-.17-.69-.24C167.24,120.84,167.47,120.93,167.7,121Z"/><path class="cls-3" d="M169.15,121.6l-.72-.33Z"/><path class="cls-3" d="M179.8,103.24l-.88-.45Z"/><path class="cls-3" d="M191.73,113.31l-.32-.41Z"/><path class="cls-3" d="M190.75,112.09l-.31-.36Z"/><path class="cls-3" d="M194.78,117.94l-.1-.16Z"/><path class="cls-3" d="M195.51,119.34l-.18-.36Z"/><path class="cls-3" d="M171.78,123.17l-.73-.52Z"/><path class="cls-3" d="M173.33,124.46c.25.23.48.48.71.73C173.81,124.94,173.58,124.69,173.33,124.46Z"/><path class="cls-3" d="M177.68,131.71c-.12-.43-.26-.85-.42-1.27C177.42,130.85,177.56,131.28,177.68,131.71Z"/><path class="cls-3" d="M149.75,145.52c-.24-.32-.47-.63-.68-1C149.28,144.89,149.51,145.2,149.75,145.52Z"/><path class="cls-3" d="M188.76,109.9v0Z"/><path class="cls-3" d="M178,133.2c-.08-.46-.18-.92-.3-1.37C177.83,132.28,177.93,132.74,178,133.2Z"/><path class="cls-3" d="M177.2,130.28c-.15-.4-.32-.79-.5-1.18C176.88,129.49,177.05,129.88,177.2,130.28Z"/><polygon class="cls-3" points="197.65 124.57 197.65 124.57 197.65 124.57 197.65 124.57"/><path class="cls-3" d="M148.77,144.07c-.18-.31-.35-.62-.52-.94C148.42,143.45,148.59,143.76,148.77,144.07Z"/><path class="cls-3" d="M178.35,102.51c-.47-.23-.95-.45-1.44-.65C177.4,102.06,177.88,102.28,178.35,102.51Z"/><path class="cls-3" d="M147.36,141c-.11-.34-.2-.68-.29-1C147.16,140.33,147.25,140.67,147.36,141Z"/><path class="cls-3" d="M146.91,139.38c-.08-.38-.14-.76-.2-1.15C146.77,138.62,146.83,139,146.91,139.38Z"/><path class="cls-3" d="M146.63,137.69a16.6,16.6,0,0,1-.1-1.74A16.6,16.6,0,0,0,146.63,137.69Z"/><path class="cls-3" d="M151.1,147.1a15.19,15.19,0,0,0,1.26,1.15h0A15.19,15.19,0,0,1,151.1,147.1Z"/><path class="cls-3" d="M178.2,134.74h0a14.58,14.58,0,0,0-.18-1.48A14.58,14.58,0,0,1,178.2,134.74Z"/><path class="cls-3" d="M171.54,100.06c-.54-.14-1.08-.26-1.63-.38C170.46,99.8,171,99.92,171.54,100.06Z"/><path class="cls-3" d="M173.15,100.51l-1.08-.31Z"/><polygon class="cls-3" points="137.65 155.94 137.65 155.94 127.98 149.66 137.65 155.94"/><path class="cls-3" d="M164.15,99c-.58,0-1.17,0-1.75,0C163,98.93,163.57,98.94,164.15,99Z"/><path class="cls-3" d="M176.46,101.68l-1.09-.43Z"/><path class="cls-3" d="M175.87,127.58c-.21-.32-.42-.64-.64-1C175.45,126.94,175.67,127.26,175.87,127.58Z"/><path class="cls-3" d="M151,147c-.34-.35-.67-.72-1-1.11C150.33,146.27,150.66,146.64,151,147Z"/><path class="cls-3" d="M174.77,101l-1-.33Z"/><path class="cls-3" d="M176.6,128.9c-.18-.37-.37-.72-.58-1.07C176.23,128.18,176.42,128.53,176.6,128.9Z"/><path class="cls-3" d="M167.67,99.3l-1.16-.14Z"/><path class="cls-3" d="M165.9,99.1l-1.2-.1Z"/><path class="cls-3" d="M148,142.57c-.14-.31-.27-.64-.4-1C147.71,141.94,147.84,142.26,148,142.57Z"/><path class="cls-3" d="M169.66,99.64c-.47-.1-.95-.18-1.43-.26C168.71,99.46,169.19,99.54,169.66,99.64Z"/><path class="cls-3" d="M166.36,56.7l-1,0Z"/><path class="cls-3" d="M169.51,56.86l-1.12-.07Z"/><path class="cls-3" d="M178.37,57.82c-.21,0-.43-.06-.64-.09C177.94,57.76,178.16,57.78,178.37,57.82Z"/><path class="cls-3" d="M181.9,58.42c-.21,0-.42-.09-.64-.12C181.48,58.33,181.69,58.38,181.9,58.42Z"/><path class="cls-3" d="M185.08,59.06l-1-.2Z"/><path class="cls-3" d="M172.51,57.1l-1.12-.1Z"/><path class="cls-3" d="M175.46,57.42l-1-.12Z"/><path class="cls-3" d="M227.82,108.8h0l-.57-.68Z"/><path class="cls-3" d="M243.34,94.33l-.34-.41Z"/><path class="cls-3" d="M203,88.16l-.73-.39Z"/><path class="cls-3" d="M206.64,90.3l-.8-.49Z"/><path class="cls-3" d="M199.15,86.18l-.41-.19Z"/><path class="cls-3" d="M235,85.48l-.27-.25Z"/><path class="cls-3" d="M210.14,92.58l-.74-.51Z"/><path class="cls-3" d="M245.17,96.56l-.27-.34Z"/><path class="cls-3" d="M213.37,94.91l-.66-.5Z"/><path class="cls-3" d="M241.38,92.06c-.1-.1-.19-.21-.28-.31C241.19,91.85,241.28,92,241.38,92.06Z"/><path class="cls-3" d="M195.7,84.61l-.59-.25Z"/><path class="cls-3" d="M166.93,77.9l-.54,0Z"/><path class="cls-3" d="M179.66,79.55l-.32-.07Z"/><path class="cls-3" d="M183.65,80.48l-.45-.11Z"/><path class="cls-3" d="M175.64,78.82l-.62-.1Z"/><path class="cls-3" d="M216.42,97.32l-.71-.57Z"/><path class="cls-3" d="M221.88,102.29l.76.75Z"/><path class="cls-3" d="M188,59.74l-1-.24Z"/><path class="cls-3" d="M191.86,83.07l-.73-.26Z"/><path class="cls-3" d="M187.83,81.68l-.7-.21Z"/><path class="cls-3" d="M210.38,68.11l-.11,0Z"/><path class="cls-3" d="M207.84,66.86l-.67-.31Z"/><path class="cls-3" d="M219.62,100.12l-.8-.71Z"/><path class="cls-3" d="M213.22,69.62,213,69.5Z"/><path class="cls-3" d="M199.74,63.41l-.68-.26Z"/><path class="cls-3" d="M193.57,61.29l-.73-.21Z"/><path class="cls-3" d="M202.57,64.53l-.83-.34Z"/><path class="cls-3" d="M190.81,60.48l-.95-.25Z"/><path class="cls-3" d="M216.06,71.24l-.57-.34Z"/><path class="cls-3" d="M205.24,65.67l-.81-.36Z"/><path class="cls-3" d="M230.68,81.64l-.44-.38Z"/><path class="cls-3" d="M225.43,106l-.6-.68Z"/><path class="cls-3" d="M171.36,78.25l-.68-.07Z"/><path class="cls-3" d="M232.88,83.55l-.43-.39Z"/><path class="cls-3" d="M221,74.34l-.56-.37Z"/><path class="cls-3" d="M218.59,72.78l-.64-.39Z"/><path class="cls-3" d="M228.29,79.67l-.26-.21Z"/><path class="cls-3" d="M223.33,75.94l-.24-.17Z"/><path class="cls-4" d="M162.4,173c.48,0,1,0,1.43,0l-26.18-17-4.73,2.47A36.92,36.92,0,0,0,162.4,173Z"/><path class="cls-4" d="M197.13,194.57c-13.31-4.08-26.82-5.73-34.73-5.73-15.45,0-52.15,6.24-67.28,24.65a85.15,85.15,0,0,1-14.08-28l-19.12,10a105.78,105.78,0,0,0,184.53,31.06ZM162.4,247a83.49,83.49,0,0,1-52.15-18.19c4.54-9.52,32.26-18.83,52.15-18.83s47.7,9.31,52.15,18.83A83.53,83.53,0,0,1,162.4,247Z"/></svg>