<?xml version="1.0" encoding="UTF-8"?>
<svg xmlns="http://www.w3.org/2000/svg" xmlns:xlink="http://www.w3.org/1999/xlink" width="28pt" height="28pt" viewBox="0 0 28 28" version="1.1">
<g id="surface1">
<path style=" stroke:none;fill-rule:nonzero;fill:rgb(0%,0%,0%);fill-opacity:1;" d="M 22.109375 3.492188 L 20.945312 3.492188 L 20.945312 1.164062 L 18.617188 1.164062 L 18.617188 3.492188 L 9.308594 3.492188 L 9.308594 1.164062 L 6.980469 1.164062 L 6.980469 3.492188 L 5.816406 3.492188 C 4.527344 3.492188 3.503906 4.539062 3.503906 5.816406 L 3.492188 22.109375 C 3.492188 23.386719 4.527344 24.433594 5.816406 24.433594 L 22.109375 24.433594 C 23.386719 24.433594 24.433594 23.386719 24.433594 22.109375 L 24.433594 5.816406 C 24.433594 4.539062 23.386719 3.492188 22.109375 3.492188 Z M 22.109375 22.109375 L 5.816406 22.109375 L 5.816406 9.308594 L 22.109375 9.308594 Z M 8.144531 11.636719 L 13.960938 11.636719 L 13.960938 17.453125 L 8.144531 17.453125 Z M 8.144531 11.636719 "/>
</g>
</svg>
