<?xml version="1.0" encoding="UTF-8"?>
<svg xmlns="http://www.w3.org/2000/svg" xmlns:xlink="http://www.w3.org/1999/xlink" width="28pt" height="28pt" viewBox="0 0 28 28" version="1.1">
<g id="surface1">
<path style=" stroke:none;fill-rule:nonzero;fill:rgb(0%,0%,0%);fill-opacity:1;" d="M 6.980469 11.636719 C 5.703125 11.636719 4.652344 12.683594 4.652344 13.960938 C 4.652344 15.242188 5.703125 16.289062 6.980469 16.289062 C 8.261719 16.289062 9.308594 15.242188 9.308594 13.960938 C 9.308594 12.683594 8.261719 11.636719 6.980469 11.636719 Z M 20.945312 11.636719 C 19.664062 11.636719 18.617188 12.683594 18.617188 13.960938 C 18.617188 15.242188 19.664062 16.289062 20.945312 16.289062 C 22.222656 16.289062 23.269531 15.242188 23.269531 13.960938 C 23.269531 12.683594 22.222656 11.636719 20.945312 11.636719 Z M 13.960938 11.636719 C 12.683594 11.636719 11.636719 12.683594 11.636719 13.960938 C 11.636719 15.242188 12.683594 16.289062 13.960938 16.289062 C 15.242188 16.289062 16.289062 15.242188 16.289062 13.960938 C 16.289062 12.683594 15.242188 11.636719 13.960938 11.636719 Z M 13.960938 11.636719 "/>
</g>
</svg>
