<svg id="Слой_4_копия_" data-name="Слой 4 (копия)" xmlns="http://www.w3.org/2000/svg" viewBox="0 0 324.79 324.79"><defs><style>.cls-1{fill:#f44336;}.cls-2{fill:#4caf50;}.cls-3{fill:#ff9800;}.cls-4{fill:#2196f3;}</style></defs><title>About</title><path class="cls-1" d="M173.6,124h0a11.25,11.25,0,0,0-22.5,0h0a11.25,11.25,0,0,0,22.5,0Z"/><path class="cls-1" d="M162.35,56.11h0A106.29,106.29,0,0,0,56.06,162.4h0a106.1,106.1,0,0,0,5.7,34.39L82,186.2A83.74,83.74,0,0,1,227.69,110L248,99.44A106.12,106.12,0,0,0,162.35,56.11Z"/><path class="cls-2" d="M162.35,56.11h0A106.25,106.25,0,0,0,69.08,111.4l19,12.33a83.75,83.75,0,1,1,139.81,90.8l19,12.32a105.78,105.78,0,0,0,21.78-64.45h0A106.28,106.28,0,0,0,162.35,56.11Z"/><path class="cls-2" d="M162.35,112.8A11.25,11.25,0,0,0,151.1,124h0a11.25,11.25,0,0,0,22.5,0h0A11.25,11.25,0,0,0,162.35,112.8Z"/><path class="cls-2" d="M151.1,164.67l22.5,14.61V162.4a11.25,11.25,0,0,0-22.5,0Z"/><path class="cls-3" d="M173.72,124h0a11.25,11.25,0,0,0-22.5,0h0a11.25,11.25,0,0,0,22.5,0Z"/><path class="cls-3" d="M162.47,56.11h0a106.23,106.23,0,0,0-93.39,55.52l19,12.33A83.7,83.7,0,0,1,227,109l20.32-10.63A106.12,106.12,0,0,0,162.47,56.11Z"/><path class="cls-4" d="M227.87,214.53A83.72,83.72,0,0,1,81.73,185.17L61.42,195.79a106.33,106.33,0,0,0,100.93,72.89h0a106.08,106.08,0,0,0,84.5-41.83Z"/><path class="cls-4" d="M162.35,212.41a11.25,11.25,0,0,0,11.25-11.25V179.28l-22.5-14.61v36.49A11.25,11.25,0,0,0,162.35,212.41Z"/></svg>